<svg aria-hidden="true" style="width:0;height:0;position:absolute;overflow:hidden" xmlns="http://www.w3.org/2000/svg"><defs><symbol id="icon-close" viewBox="0 0 32 32"><path stroke-width="2.133" d="m8.533 8.533 14.933 14.933m-14.933.001L23.466 8.534"/></symbol><symbol id="icon-team-close" viewBox="0 0 32 32"><path stroke-width="4" d="m2 2 28 28M2 30 30 2"/></symbol><symbol id="icon-search-2" viewBox="0 0 32 32"><path fill="none" stroke="#fff" style="stroke:var(--color1,#fff)" stroke-linejoin="round" stroke-linecap="round" stroke-width="2.667" d="M14.667 25.333c5.891 0 10.667-4.776 10.667-10.667S20.558 3.999 14.667 3.999 4 8.775 4 14.666s4.776 10.667 10.667 10.667zM28 28.001l-5.8-5.8"/></symbol><symbol id="icon-film" viewBox="0 0 32 32"><path fill="none" stroke="#fff" style="stroke:var(--color1,#fff)" stroke-linejoin="round" stroke-linecap="round" stroke-width="2.667" d="M26.427 2.667H5.574a2.907 2.907 0 0 0-2.907 2.907v20.853a2.907 2.907 0 0 0 2.907 2.907h20.853a2.907 2.907 0 0 0 2.907-2.907V5.574a2.907 2.907 0 0 0-2.907-2.907zm-17.094 0v26.667M22.667 2.667v26.667M2.667 16h26.667M2.667 9.333h6.667M2.667 22.667h6.667m13.333 0h6.667M22.667 9.333h6.667"/></symbol><symbol id="icon-favorite" viewBox="0 0 34 32"><path fill="#ff6b08" style="fill:var(--color2,#ff6b08)" d="m17.231 31.705-2.412-2.412C5.859 21.367.001 16.025.001 9.478.001 4.136 4.136.001 9.478.001c2.929 0 5.858 1.378 7.754 3.618 1.895-2.24 4.825-3.618 7.754-3.618 5.342 0 9.477 4.135 9.477 9.477 0 6.548-5.858 11.889-14.818 19.815l-2.412 2.412z"/></symbol><symbol id="icon-github" viewBox="0 0 30 32"><path d="M15.059 1.704C6.805 1.704.119 8.563.119 17.023c0 6.769 4.28 12.51 10.216 14.532.747.145 1.02-.328 1.02-.734 0-.365-.011-1.329-.019-2.605-4.154.924-5.032-2.056-5.032-2.056-.678-1.769-1.662-2.24-1.662-2.24-1.353-.951.105-.93.105-.93 1.5.107 2.287 1.577 2.287 1.577 1.333 2.342 3.497 1.666 4.352 1.274.134-.992.52-1.666.947-2.05-3.319-.382-6.807-1.7-6.807-7.569 0-1.673.58-3.038 1.538-4.111-.168-.388-.672-1.944.132-4.055 0 0 1.25-.41 4.107 1.57a13.674 13.674 0 0 1 3.735-.516h.001c1.271.008 2.541.175 3.736.516 2.839-1.98 4.088-1.57 4.088-1.57.804 2.11.299 3.667.151 4.055.951 1.073 1.53 2.438 1.53 4.111 0 5.884-3.492 7.179-6.816 7.556.523.461 1.009 1.4 1.009 2.835 0 2.05-.019 3.697-.019 4.194 0 .403.262.881 1.026.728 5.978-2.01 10.253-7.755 10.253-14.513 0-8.459-6.688-15.319-14.94-15.319z"/></symbol><symbol id="icon-linkedin" viewBox="0 0 30 32"><path d="M29.72 30.112h.008V19.528c0-5.18-1.12-9.168-7.196-9.168-2.922 0-4.882 1.598-5.682 3.112h-.086v-2.628h-5.76v19.268h6v-9.54c0-2.514.476-4.942 3.6-4.942 3.076 0 3.122 2.866 3.122 5.102v9.38h5.994zM1.234 10.846H7.24v19.268H1.234V10.846zm3-9.594a3.476 3.476 0 0 0-3.48 3.466c0 1.914 1.56 3.5 3.48 3.5s3.48-1.586 3.48-3.5a3.477 3.477 0 0 0-3.48-3.466z"/></symbol><symbol id="icon-telegram" viewBox="0 0 39 32"><path d="M27.31 10.37c1.113-1.077 2.217-3.593-2.418-.539-1.392 1.049-5.657 3.867-9.949 6.644l-3.132 1.898a5.503 5.503 0 0 1-2.244.47 5.577 5.577 0 0 1-2.061-.392l.038.013c-3.427-.98-5.434-1.624-7.426-2.3l1.399.412S-.7 15.227 3.094 13.787c0 0 16.048-6.382 21.614-8.631-2.881.922.211-.35 3.312-1.606l6.055-2.168S37.417.12 37.138 3.179c-.091 1.257-.834 5.666-1.577 10.43-1.115 6.743-2.32 14.114-2.32 14.114s-.185 2.066-1.76 2.427a7.757 7.757 0 0 1-4.658-1.631l.018.013c-.368-.27-6.955-4.315-9.367-6.293a1.744 1.744 0 0 1-.576-.626l-.005-.009a1.642 1.642 0 0 1-.192-.776c0-.321.091-.621.249-.875l-.004.007c.155-.249.364-.452.611-.594l.008-.004a338.37 338.37 0 0 0 9.859-9.099l-.112.107z"/></symbol><symbol id="icon-sun" viewBox="0 0 32 32"><path d="M16 26a2 2 0 0 1 2 2v2a2 2 0 1 1-4 0v-2a2 2 0 0 1 2-2zm0-20a2 2 0 0 1-2-2V2a2 2 0 1 1 4 0v2a2 2 0 0 1-2 2zm14 8a2 2 0 1 1 0 4h-2a2 2 0 1 1 0-4h2zM6 16a2 2 0 0 1-2 2H2a2 2 0 1 1 0-4h2a2 2 0 0 1 2 2zm19.899 7.071 1.414 1.414a2 2 0 1 1-2.828 2.828l-1.414-1.414a2 2 0 1 1 2.828-2.828zM6.101 8.929 4.687 7.515a2 2 0 1 1 2.828-2.828l1.414 1.414a2 2 0 1 1-2.828 2.828zm19.798 0a2 2 0 1 1-2.828-2.828l1.414-1.414a2 2 0 1 1 2.828 2.828l-1.414 1.414zM6.101 23.071a2 2 0 1 1 2.828 2.828l-1.414 1.414a2 2 0 1 1-2.828-2.828l1.414-1.414zM16 8a8 8 0 1 0 0 16 8 8 0 0 0 0-16zm0 13a5 5 0 1 1 .001-10.001A5 5 0 0 1 16 21z"/></symbol><symbol id="icon-IcoMoon" viewBox="0 0 122.88 122.89"><path d="M49.06 1.27C51.23.82 53.4.5 55.54.29c2.2-.21 4.38-.31 6.53-.29a2.19 2.19 0 0 1 .75 4.24c-9.15 3.6-16.47 10.31-20.96 18.62a40.771 40.771 0 0 0-4.09 27.68l.01.07c2.29 11.06 8.83 20.15 17.58 25.91 8.74 5.76 19.67 8.18 30.73 5.92l.07-.01c7.96-1.65 14.89-5.49 20.3-10.78 5.6-5.47 9.56-12.48 11.33-20.16a2.186 2.186 0 0 1 4.29.14c2.64 16.2-1.35 32.07-10.06 44.71-8.67 12.58-22.03 21.97-38.18 25.29-16.62 3.42-33.05-.22-46.18-8.86C14.52 104.1 4.69 90.45 1.27 73.83c-3.34-16.23.05-32.28 8.26-45.25C17.78 15.57 30.88 5.64 46.91 1.75c.31-.08.67-.16 1.06-.25h.01l1.08-.23z"/></symbol></defs></svg>