<svg aria-hidden="true" style="position:absolute;width:0;height:0;overflow:hidden" xmlns="http://www.w3.org/2000/svg">
  <defs>
    <symbol id="icon-close" viewBox="0 0 32 32">
      <path fill="black" stroke-width="2.133" d="m8.533 8.533 14.933 14.933M8.533 23.467 23.466 8.534" />
    </symbol>
    <symbol id="icon-team-close" viewBox="0 0 32 32">
      <path stroke-linejoin="miter" stroke-linecap="butt" stroke-miterlimit="4" stroke-width="4" d="M2 2l28 28"></path>
      <path stroke-linejoin="miter" stroke-linecap="butt" stroke-miterlimit="4" stroke-width="4" d="M2 30l28-28"></path>
    </symbol>
    <symbol id="icon-search-2" viewBox="0 0 32 32">
      <path fill="none" stroke="#fff" style="stroke:var(--color1, #fff)" stroke-linejoin="round" stroke-linecap="round"
        stroke-width="2.667"
        d="M14.667 25.333c5.891 0 10.667-4.776 10.667-10.667S20.558 3.999 14.667 3.999 4 8.775 4 14.666s4.776 10.667 10.667 10.667zM28 28.001l-5.8-5.8" />
    </symbol>
    <symbol id="icon-film" viewBox="0 0 32 32">
      <path fill="none" stroke="#fff" style="stroke:var(--color1, #fff)" stroke-linejoin="round" stroke-linecap="round"
        stroke-width="2.667"
        d="M26.427 2.667H5.574a2.907 2.907 0 0 0-2.907 2.907v20.853a2.907 2.907 0 0 0 2.907 2.907h20.853a2.907 2.907 0 0 0 2.907-2.907V5.574a2.907 2.907 0 0 0-2.907-2.907zM9.333 2.667v26.667M22.667 2.667v26.667M2.667 16h26.667M2.667 9.333h6.667M2.667 22.667h6.667M22.667 22.667h6.667M22.667 9.333h6.667" />
    </symbol>
    <symbol id="icon-favorite" viewBox="0 0 34 32">
      <path fill="#ff6b08" style="fill:var(--color2, #ff6b08)"
        d="m17.231 31.705-2.412-2.412C5.859 21.367.001 16.025.001 9.478.001 4.136 4.136.001 9.478.001c2.929 0 5.858 1.378 7.754 3.618 1.895-2.24 4.825-3.618 7.754-3.618 5.342 0 9.477 4.135 9.477 9.477 0 6.548-5.858 11.889-14.818 19.815l-2.412 2.412z" />
    </symbol>
    <symbol id="icon-github" viewBox="0 0 30 32">
      <path
        d="M15.059 1.704c-8.254 0-14.94 6.859-14.94 15.319 0 6.769 4.28 12.51 10.216 14.532 0.747 0.145 1.020-0.328 1.020-0.734 0-0.365-0.011-1.329-0.019-2.605-4.154 0.924-5.032-2.056-5.032-2.056-0.678-1.769-1.662-2.24-1.662-2.24-1.353-0.951 0.105-0.93 0.105-0.93 1.5 0.107 2.287 1.577 2.287 1.577 1.333 2.342 3.497 1.666 4.352 1.274 0.134-0.992 0.52-1.666 0.947-2.050-3.319-0.382-6.807-1.7-6.807-7.569 0-1.673 0.58-3.038 1.538-4.111-0.168-0.388-0.672-1.944 0.132-4.055 0 0 1.25-0.41 4.107 1.57 1.119-0.325 2.405-0.513 3.735-0.516h0.001c1.271 0.008 2.541 0.175 3.736 0.516 2.839-1.98 4.088-1.57 4.088-1.57 0.804 2.11 0.299 3.667 0.151 4.055 0.951 1.073 1.53 2.438 1.53 4.111 0 5.884-3.492 7.179-6.816 7.556 0.523 0.461 1.009 1.4 1.009 2.835 0 2.050-0.019 3.697-0.019 4.194 0 0.403 0.262 0.881 1.026 0.728 5.978-2.010 10.253-7.755 10.253-14.513 0-8.459-6.688-15.319-14.94-15.319z">
      </path>
    </symbol>
    <symbol id="icon-linkedin" viewBox="0 0 30 32">
      <path
        d="M29.72 30.112h0.008v-10.584c0-5.18-1.12-9.168-7.196-9.168-2.922 0-4.882 1.598-5.682 3.112h-0.086v-2.628h-5.76v19.268h6v-9.54c0-2.514 0.476-4.942 3.6-4.942 3.076 0 3.122 2.866 3.122 5.102v9.38h5.994zM1.234 10.846h6.006v19.268h-6.006v-19.268zM4.234 1.252c-1.92 0-3.48 1.554-3.48 3.466 0 1.914 1.56 3.5 3.48 3.5s3.48-1.586 3.48-3.5c-0.002-1.912-1.56-3.466-3.48-3.466z">
      </path>
    </symbol>
    <symbol id="icon-telegram" viewBox="0 0 39 32">
      <path
        d="M27.31 10.37c1.113-1.077 2.217-3.593-2.418-0.539-1.392 1.049-5.657 3.867-9.949 6.644l-3.132 1.898c-0.661 0.297-1.432 0.47-2.244 0.47-0.728 0-1.423-0.139-2.061-0.392l0.038 0.013c-3.427-0.98-5.434-1.624-7.426-2.3l1.399 0.412s-2.217-1.349 1.577-2.789c0 0 16.048-6.382 21.614-8.631-2.881 0.922 0.211-0.35 3.312-1.606l6.055-2.168s3.342-1.262 3.063 1.797c-0.091 1.257-0.834 5.666-1.577 10.43-1.115 6.743-2.32 14.114-2.32 14.114s-0.185 2.066-1.76 2.427c-1.758-0.026-3.369-0.631-4.658-1.631l0.018 0.013c-0.368-0.27-6.955-4.315-9.367-6.293-0.244-0.161-0.44-0.375-0.576-0.626l-0.005-0.009c-0.121-0.225-0.192-0.492-0.192-0.776 0-0.321 0.091-0.621 0.249-0.875l-0.004 0.007c0.155-0.249 0.364-0.452 0.611-0.594l0.008-0.004c3.569-3.17 6.742-6.105 9.859-9.099l-0.112 0.107z">
      </path>
    </symbol>
    <symbol id="icon-sun" viewBox="0 0 32 32">
      <path
        d="M16 26c1.105 0 2 0.895 2 2v2c0 1.105-0.895 2-2 2s-2-0.895-2-2v-2c0-1.105 0.895-2 2-2zM16 6c-1.105 0-2-0.895-2-2v-2c0-1.105 0.895-2 2-2s2 0.895 2 2v2c0 1.105-0.895 2-2 2zM30 14c1.105 0 2 0.895 2 2s-0.895 2-2 2h-2c-1.105 0-2-0.895-2-2s0.895-2 2-2h2zM6 16c0 1.105-0.895 2-2 2h-2c-1.105 0-2-0.895-2-2s0.895-2 2-2h2c1.105 0 2 0.895 2 2zM25.899 23.071l1.414 1.414c0.781 0.781 0.781 2.047 0 2.828s-2.047 0.781-2.828 0l-1.414-1.414c-0.781-0.781-0.781-2.047 0-2.828s2.047-0.781 2.828 0zM6.101 8.929l-1.414-1.414c-0.781-0.781-0.781-2.047 0-2.828s2.047-0.781 2.828 0l1.414 1.414c0.781 0.781 0.781 2.047 0 2.828s-2.047 0.781-2.828 0zM25.899 8.929c-0.781 0.781-2.047 0.781-2.828 0s-0.781-2.047 0-2.828l1.414-1.414c0.781-0.781 2.047-0.781 2.828 0s0.781 2.047 0 2.828l-1.414 1.414zM6.101 23.071c0.781-0.781 2.047-0.781 2.828 0s0.781 2.047 0 2.828l-1.414 1.414c-0.781 0.781-2.047 0.781-2.828 0s-0.781-2.047 0-2.828l1.414-1.414z">
      </path>
      <path
        d="M16 8c-4.418 0-8 3.582-8 8s3.582 8 8 8c4.418 0 8-3.582 8-8s-3.582-8-8-8zM16 21c-2.761 0-5-2.239-5-5s2.239-5 5-5 5 2.239 5 5-2.239 5-5 5z">
      </path>
    </symbol>
    <symbol id="icon-IcoMoon" viewBox="0 0 32 32">
      <path
        d="M8.111 16c0-2.044 1.657-3.701 3.701-3.701s3.701 1.657 3.701 3.701c0 2.044-1.657 3.701-3.701 3.701s-3.701-1.657-3.701-3.701zM16 0c-8.837 0-16 7.163-16 16s7.163 16 16 16c8.836 0 16-7.163 16-16s-7.163-16-16-16zM11.856 29.978c-4.811-2.799-8.046-8.010-8.046-13.978s3.235-11.178 8.046-13.978c4.813 2.799 8.050 8.009 8.050 13.978s-3.237 11.179-8.050 13.978z">
      </path>
    </symbol>

  </defs>
</svg>