<svg aria-hidden="true" style="position:absolute;width:0;height:0;overflow:hidden" xmlns="http://www.w3.org/2000/svg">
  <defs>
    <symbol id="close" viewBox="0 0 32 32">
      <path d="M26.667 7.303l-1.97-1.97-7.808 7.808-7.808-7.808-1.97 1.97 7.808 7.808-7.808 7.808 1.97 1.97 7.808-7.808 7.808 7.808 1.97-1.97-7.808-7.808 7.808-7.808z"></path>
    </symbol>
    <symbol id="icon-search-2" viewBox="0 0 32 32">
      <path fill="none" stroke="#fff" style="stroke:var(--color1, #fff)" stroke-linejoin="round" stroke-linecap="round"
        stroke-width="2.667"
        d="M14.667 25.333c5.891 0 10.667-4.776 10.667-10.667S20.558 3.999 14.667 3.999 4 8.775 4 14.666s4.776 10.667 10.667 10.667zM28 28.001l-5.8-5.8" />
    </symbol>
    <symbol id="icon-film" viewBox="0 0 32 32">
      <path fill="none" stroke="#fff" style="stroke:var(--color1, #fff)" stroke-linejoin="round" stroke-linecap="round"
        stroke-width="2.667"
        d="M26.427 2.667H5.574a2.907 2.907 0 0 0-2.907 2.907v20.853a2.907 2.907 0 0 0 2.907 2.907h20.853a2.907 2.907 0 0 0 2.907-2.907V5.574a2.907 2.907 0 0 0-2.907-2.907zM9.333 2.667v26.667M22.667 2.667v26.667M2.667 16h26.667M2.667 9.333h6.667M2.667 22.667h6.667M22.667 22.667h6.667M22.667 9.333h6.667" />
    </symbol>
    <symbol id="icon-search-2-2-1" viewBox="0 0 32 32">
      <path fill="#black" stroke="#fff" stroke-linecap="round" stroke-linejoin="round" stroke-width="2.667" d="M14.667 25.333c5.891 0 10.667-4.776 10.667-10.667S20.558 3.999 14.667 3.999 4 8.775 4 14.666s4.776 10.667 10.667 10.667zM28 28.001l-5.8-5.8" style="stroke:var(--color1, #fff)"/>
    </symbol>
    <symbol id="icon-favorite" viewBox="0 0 34 32">
      <path fill="#ff6b08" style="fill:var(--color2, #ff6b08)"
        d="m17.231 31.705-2.412-2.412C5.859 21.367.001 16.025.001 9.478.001 4.136 4.136.001 9.478.001c2.929 0 5.858 1.378 7.754 3.618 1.895-2.24 4.825-3.618 7.754-3.618 5.342 0 9.477 4.135 9.477 9.477 0 6.548-5.858 11.889-14.818 19.815l-2.412 2.412z" />
    </symbol>
    <symbol id="downarrow" viewBox="0 0 32 32"><path d="M16 1c8.284 0 15 6.716 15 15s-6.716 15-15 15C7.716 31 1 24.284 1 16 1 7.716 7.716 1 16 1zm0 28c7.18 0 13-5.82 13-13S23.18 3 16 3 3 8.82 3 16s5.82 13 13 13z"/><path d="M10.41 12.13 16 17.71l5.59-5.58a.996.996 0 0 1 1.41 0 .996.996 0 0 1 0 1.41l-6.36 6.36c-.164.163-.39.263-.64.263s-.476-.1-.64-.263L9 13.54a.996.996 0 0 1 0-1.41.996.996 0 0 1 1.41 0z"/></symbol><symbol id="uparrow" viewBox="0 0 32 32"><path d="M1 16C1 7.716 7.716 1 16 1s15 6.716 15 15c0 8.284-6.716 15-15 15-8.284 0-15-6.716-15-15zm2 0c0 7.18 5.82 13 13 13s13-5.82 13-13S23.18 3 16 3 3 8.82 3 16z"/><path d="M10.41 19.87 16 14.29l5.59 5.58a.996.996 0 0 0 1.41 0 .996.996 0 0 0 0-1.41l-6.36-6.36c-.164-.163-.39-.263-.64-.263s-.476.1-.64.263L9 18.46a.996.996 0 0 0 0 1.41.996.996 0 0 0 1.41 0z"/></symbol>
  </defs>
</svg>